<svg xmlns="http://www.w3.org/2000/svg" viewBox="0 0 1000 1414" width="297mm" height="420mm">
<title>Javorníky — Bonus Mapa samôt</title>
<style>@import url('https://fonts.googleapis.com/css2?family=Fraunces:opsz,wght@9..144,400;9..144,600;9..144,900&family=Archivo+Black&family=Archivo+Narrow:wght@500;700&family=IBM+Plex+Mono:wght@400;600&display=swap');.serif{font-family:Fraunces,'Bitstream Charter',Georgia,serif}.black{font-family:'Archivo Black','Arial Black',sans-serif}.narrow{font-family:'Archivo Narrow','Liberation Sans Narrow',sans-serif}.mono{font-family:'IBM Plex Mono','DejaVu Sans Mono',monospace}.mul{mix-blend-mode:multiply}</style>
<defs>
<filter id="grain" x="0" y="0" width="100%" height="100%"><feTurbulence type="fractalNoise" baseFrequency="0.85" numOctaves="3" seed="7" stitchTiles="stitch"/><feColorMatrix type="saturate" values="0"/><feComponentTransfer><feFuncR type="linear" slope="1.6" intercept="-0.2"/><feFuncG type="linear" slope="1.6" intercept="-0.2"/><feFuncB type="linear" slope="1.6" intercept="-0.2"/></feComponentTransfer></filter>
<filter id="rough" x="-2%" y="-2%" width="104%" height="104%"><feTurbulence type="fractalNoise" baseFrequency="0.035" numOctaves="2" seed="4"/><feDisplacementMap in="SourceGraphic" scale="4"/></filter>
<filter id="rough2" x="-2%" y="-2%" width="104%" height="104%"><feTurbulence type="fractalNoise" baseFrequency="0.09" numOctaves="2" seed="9"/><feDisplacementMap in="SourceGraphic" scale="3"/></filter>
<clipPath id="panel"><rect x="60" y="60" width="880" height="960"/></clipPath>
<pattern id="dotsG" width="7" height="7" patternUnits="userSpaceOnUse" patternTransform="rotate(22)"><circle cx="3.5" cy="3.5" r="2.1" fill="#3A5A40"/></pattern>
<pattern id="dotsR" width="6" height="6" patternUnits="userSpaceOnUse" patternTransform="rotate(-18)"><circle cx="3" cy="3" r="1.7" fill="#C4522A"/></pattern>
<pattern id="dotsD" width="6" height="6" patternUnits="userSpaceOnUse" patternTransform="rotate(45)"><circle cx="3" cy="3" r="1.3" fill="#2B231A"/></pattern>
</defs>
<g id="01-papier"><rect width="1000" height="1414" fill="#2B231A"/></g>
<g clip-path="url(#panel)">
<g fill="#F0E6D2"><circle cx="297.9" cy="856.6" r="1.9"/><circle cx="438.8" cy="615" r="1.9"/><circle cx="300.1" cy="706.9" r="2"/><circle cx="469.1" cy="487.7" r="2.1"/><circle cx="405.3" cy="622.1" r="2.4"/><circle cx="752.2" cy="165.2" r="2.9"/><circle cx="599.3" cy="108.2" r="1.8"/><circle cx="227.8" cy="925.8" r="2.4"/><circle cx="180.8" cy="772.7" r="2"/><circle cx="409.8" cy="552.2" r="2.6"/><circle cx="276.5" cy="868.6" r="1.7"/><circle cx="556.9" cy="184.8" r="2.5"/><circle cx="383.5" cy="491.8" r="1.9"/><circle cx="182.9" cy="890.1" r="2.9"/><circle cx="551" cy="569.1" r="2.6"/><circle cx="269.9" cy="870.1" r="2.2"/><circle cx="355.6" cy="588.8" r="1.8"/><circle cx="771.7" cy="362.5" r="2.7"/><circle cx="626.7" cy="226.4" r="2.6"/><circle cx="736.6" cy="236.6" r="1.7"/><circle cx="474.1" cy="954.1" r="2.6"/><circle cx="459.2" cy="487.1" r="2.5"/><circle cx="454.7" cy="512" r="1.9"/><circle cx="485.6" cy="91.6" r="2.2"/><circle cx="536.6" cy="176.3" r="2.2"/><circle cx="625.5" cy="459.1" r="1.8"/><circle cx="556" cy="339.3" r="1.7"/><circle cx="562.9" cy="489" r="2"/><circle cx="785.9" cy="302.8" r="2.1"/><circle cx="648.9" cy="341.2" r="2.5"/><circle cx="260.4" cy="826.8" r="2.5"/><circle cx="574.9" cy="697.5" r="2.7"/><circle cx="484.2" cy="566.4" r="1.7"/><circle cx="501.7" cy="448.7" r="3"/><circle cx="855.9" cy="372.7" r="1.9"/><circle cx="481.2" cy="530.8" r="2.9"/><circle cx="321.3" cy="806.9" r="2.5"/><circle cx="701.9" cy="488.8" r="2.8"/><circle cx="475.5" cy="591.5" r="2.5"/><circle cx="288.5" cy="732.7" r="2.4"/><circle cx="363.5" cy="510.7" r="2.8"/><circle cx="246.5" cy="959.1" r="1.6"/><circle cx="463.1" cy="917.8" r="2.7"/><circle cx="882.4" cy="273.4" r="1.9"/><circle cx="511.9" cy="275.8" r="2"/><circle cx="776.6" cy="211.5" r="2.8"/><circle cx="329.2" cy="873.6" r="2"/><circle cx="404.7" cy="561.6" r="2.8"/><circle cx="189.7" cy="897.5" r="2.8"/><circle cx="265.3" cy="818.9" r="2.9"/><circle cx="602.9" cy="441.2" r="2.2"/><circle cx="292.3" cy="813.8" r="2.1"/><circle cx="545.3" cy="131.3" r="2.7"/><circle cx="622.9" cy="117.2" r="2.4"/><circle cx="396.9" cy="578" r="2.1"/><circle cx="351.7" cy="844.9" r="2"/><circle cx="418.2" cy="498.1" r="2.6"/><circle cx="254.9" cy="788.4" r="1.8"/><circle cx="359.8" cy="272.3" r="2.3"/><circle cx="800" cy="181" r="2.4"/><circle cx="616.1" cy="228.7" r="1.9"/><circle cx="703.6" cy="405.3" r="2.8"/><circle cx="654.9" cy="400.5" r="2.5"/><circle cx="553.6" cy="826.5" r="2"/><circle cx="411.1" cy="951.5" r="2.6"/><circle cx="269.2" cy="841.8" r="2.7"/><circle cx="494.5" cy="482.5" r="1.9"/><circle cx="279.2" cy="777.2" r="2.9"/><circle cx="487.5" cy="465.1" r="2"/><circle cx="340.9" cy="717.1" r="2.5"/><circle cx="501.5" cy="466.5" r="2.6"/><circle cx="229.4" cy="931.3" r="2.5"/><circle cx="485.4" cy="261.3" r="2.2"/><circle cx="659.5" cy="342.8" r="1.9"/><circle cx="442.1" cy="485.5" r="2.7"/><circle cx="380.9" cy="690.8" r="3"/><circle cx="253.6" cy="798.7" r="2.6"/><circle cx="314.1" cy="848.4" r="1.8"/><circle cx="477" cy="504" r="1.7"/><circle cx="505.9" cy="468.4" r="2.2"/><circle cx="395.2" cy="464.5" r="2.8"/><circle cx="245.5" cy="827.4" r="2.4"/><circle cx="411.1" cy="550.5" r="2.5"/><circle cx="299.7" cy="688" r="2.5"/><circle cx="620" cy="225.6" r="3"/><circle cx="222.8" cy="874.5" r="2.9"/><circle cx="180.9" cy="805.5" r="2.9"/><circle cx="610" cy="411.2" r="2.2"/><circle cx="808.3" cy="169.9" r="2.7"/><circle cx="545.9" cy="677.1" r="2.8"/><circle cx="563.7" cy="147.4" r="2.2"/><circle cx="469.1" cy="374.3" r="2.8"/><circle cx="553.3" cy="767.9" r="1.9"/><circle cx="349.3" cy="544.6" r="2.6"/><circle cx="213" cy="853.2" r="2.3"/><circle cx="219.8" cy="824.9" r="2.3"/><circle cx="554.9" cy="822.7" r="2.4"/><circle cx="515.3" cy="490.6" r="2.9"/><circle cx="130.4" cy="800.6" r="1.8"/><circle cx="386.6" cy="640" r="2.4"/><circle cx="409.4" cy="598.4" r="2.7"/><circle cx="430.1" cy="905.4" r="2.8"/><circle cx="307.8" cy="859.4" r="2.1"/><circle cx="159.6" cy="738" r="2.6"/><circle cx="214.7" cy="901.5" r="1.7"/><circle cx="511.3" cy="477.7" r="1.7"/><circle cx="655.2" cy="125.1" r="2.9"/><circle cx="447.5" cy="485.5" r="1.9"/><circle cx="407.9" cy="552.6" r="1.7"/><circle cx="549.3" cy="175.2" r="1.8"/><circle cx="268.9" cy="727.7" r="2.4"/><circle cx="552" cy="156.5" r="2.1"/><circle cx="449" cy="164" r="1.8"/><circle cx="601.1" cy="426.3" r="2.2"/><circle cx="296.1" cy="844.9" r="1.8"/><circle cx="435.9" cy="438.8" r="2.6"/><circle cx="609.9" cy="164.3" r="1.7"/><circle cx="673.3" cy="176.1" r="2.7"/><circle cx="591.8" cy="758.2" r="2.4"/><circle cx="581.5" cy="472.1" r="1.7"/><circle cx="540.6" cy="498" r="1.6"/><circle cx="284.5" cy="881.5" r="2.6"/><circle cx="781.1" cy="230.2" r="1.9"/><circle cx="420.6" cy="526.8" r="2.2"/><circle cx="345.8" cy="272" r="2.1"/><circle cx="382.5" cy="334.6" r="1.6"/><circle cx="565.1" cy="798" r="1.7"/><circle cx="527.6" cy="524.3" r="2.3"/><circle cx="212.6" cy="858.5" r="2.4"/><circle cx="194.2" cy="743.1" r="2.9"/><circle cx="179.9" cy="765.2" r="1.9"/><circle cx="674.2" cy="149.8" r="2.2"/><circle cx="452.7" cy="566.1" r="1.8"/><circle cx="611.5" cy="150.9" r="2.7"/><circle cx="520.1" cy="320.9" r="1.8"/><circle cx="364.2" cy="925.5" r="2.8"/><circle cx="290.2" cy="738.8" r="1.9"/><circle cx="259.7" cy="677.2" r="2.3"/><circle cx="338.1" cy="755.4" r="2.3"/><circle cx="192.5" cy="743.7" r="2.4"/><circle cx="236.3" cy="799.9" r="2.7"/><circle cx="457.8" cy="480.2" r="2"/><circle cx="394.8" cy="874.6" r="2.4"/><circle cx="339.9" cy="767.4" r="2.2"/><circle cx="234.9" cy="810.9" r="2.2"/><circle cx="411.6" cy="456.3" r="2.1"/><circle cx="493" cy="482.1" r="2.1"/><circle cx="432.8" cy="629.5" r="2.8"/><circle cx="451.2" cy="790.1" r="2.1"/><circle cx="527.3" cy="808.9" r="2.5"/><circle cx="175.9" cy="689.9" r="2.4"/><circle cx="317.9" cy="764.6" r="2.2"/><circle cx="672.4" cy="397.6" r="2.8"/><circle cx="478.6" cy="569.1" r="2.9"/><circle cx="847.7" cy="405.6" r="2"/><circle cx="440.3" cy="593.2" r="2.8"/><circle cx="425.7" cy="620.1" r="2.6"/><circle cx="514.7" cy="483.2" r="1.9"/><circle cx="643" cy="124.4" r="3"/><circle cx="452.3" cy="451.6" r="1.9"/><circle cx="484.1" cy="143.4" r="2.5"/><circle cx="367.8" cy="495.4" r="2"/><circle cx="727.9" cy="225.2" r="2.1"/><circle cx="498.5" cy="371" r="1.8"/><circle cx="239.3" cy="923.1" r="2.2"/><circle cx="575" cy="612.8" r="2.6"/><circle cx="481.5" cy="314.9" r="2.6"/><circle cx="374.4" cy="555.9" r="1.9"/><circle cx="708.4" cy="405.5" r="1.9"/><circle cx="280.3" cy="722.2" r="2.9"/><circle cx="457.2" cy="501.8" r="2.6"/><circle cx="261.7" cy="794.8" r="1.8"/><circle cx="598.2" cy="156.8" r="1.8"/><circle cx="544.4" cy="804.5" r="2.6"/><circle cx="250.2" cy="982.5" r="2"/><circle cx="635.4" cy="243" r="1.7"/><circle cx="322.4" cy="517.3" r="1.6"/><circle cx="243" cy="805.2" r="2.6"/><circle cx="398.2" cy="631.9" r="2"/><circle cx="446.7" cy="340.1" r="2.1"/><circle cx="788.6" cy="126.4" r="2.7"/><circle cx="568.9" cy="828.4" r="2.7"/><circle cx="316.6" cy="731.3" r="2.3"/><circle cx="261.8" cy="678" r="2.3"/><circle cx="208" cy="833.1" r="2.5"/><circle cx="654.7" cy="143.1" r="2.6"/><circle cx="629.1" cy="491" r="2.5"/><circle cx="609" cy="152.4" r="2.3"/><circle cx="464.7" cy="492" r="2.3"/><circle cx="357.1" cy="697.5" r="1.6"/><circle cx="503.7" cy="111.7" r="1.8"/><circle cx="373.1" cy="580.6" r="2.7"/><circle cx="311.3" cy="472.4" r="2.8"/><circle cx="213.3" cy="849.8" r="2.4"/><circle cx="534.8" cy="433.7" r="2.4"/><circle cx="433.4" cy="566.4" r="2.7"/><circle cx="181.4" cy="679.2" r="2.9"/><circle cx="574.6" cy="309.8" r="2.6"/><circle cx="604.3" cy="417.6" r="1.9"/><circle cx="508.9" cy="496.4" r="2"/><circle cx="650" cy="164.9" r="1.8"/><circle cx="587.2" cy="186.4" r="1.6"/><circle cx="735.1" cy="272.3" r="2.3"/><circle cx="552.1" cy="140" r="3"/><circle cx="268.7" cy="801.4" r="2.3"/><circle cx="315.8" cy="809.6" r="2.3"/><circle cx="436.3" cy="567.7" r="1.7"/><circle cx="153.8" cy="833.7" r="3"/><circle cx="573.3" cy="213.4" r="2.7"/><circle cx="811.6" cy="199.7" r="2.8"/><circle cx="461.3" cy="762.7" r="2.9"/><circle cx="637.7" cy="215.1" r="2.5"/><circle cx="674.9" cy="277.2" r="2.1"/><circle cx="606.4" cy="141" r="2.2"/><circle cx="709.7" cy="658" r="1.9"/><circle cx="184.9" cy="698.3" r="2.4"/><circle cx="620.9" cy="564.9" r="3"/><circle cx="446.2" cy="464" r="2.8"/><circle cx="452.8" cy="233.8" r="1.7"/><circle cx="362.9" cy="885" r="1.6"/><circle cx="495.5" cy="446.9" r="2.7"/><circle cx="619" cy="254.3" r="2.2"/><circle cx="588.5" cy="102.6" r="2.6"/><circle cx="439.1" cy="694.8" r="2.3"/><circle cx="277.8" cy="865" r="2.9"/><circle cx="676.4" cy="118.1" r="2.5"/><circle cx="553.1" cy="748.1" r="1.7"/><circle cx="569.3" cy="505.2" r="2.5"/><circle cx="558.6" cy="124.8" r="2.7"/><circle cx="307.2" cy="960.2" r="2"/><circle cx="482.8" cy="713.7" r="2.6"/><circle cx="669.6" cy="622.1" r="1.6"/><circle cx="80.5" cy="606.9" r="2.5"/><circle cx="359" cy="548.9" r="2"/><circle cx="545.4" cy="510.8" r="2.8"/><circle cx="515.7" cy="294.8" r="2.3"/><circle cx="675.9" cy="123.2" r="2.4"/><circle cx="451" cy="855" r="2.8"/><circle cx="384.4" cy="295.8" r="2.2"/><circle cx="498" cy="380" r="1.7"/><circle cx="395.3" cy="547.8" r="1.9"/><circle cx="493.9" cy="571.7" r="2.1"/><circle cx="641" cy="699.6" r="1.6"/><circle cx="346.5" cy="756.3" r="2.9"/><circle cx="341.2" cy="925.6" r="2.8"/><circle cx="394.1" cy="971.4" r="3"/><circle cx="513.9" cy="440.8" r="2.8"/><circle cx="524.9" cy="170.8" r="2.5"/><circle cx="510.1" cy="447.2" r="2.5"/><circle cx="451.7" cy="415.1" r="1.8"/><circle cx="595.3" cy="267.9" r="2.2"/><circle cx="265.2" cy="796.1" r="2.8"/><circle cx="460.9" cy="507.6" r="1.8"/><circle cx="602.7" cy="276.5" r="1.7"/><circle cx="227.5" cy="782.5" r="2.5"/><circle cx="419.5" cy="620.1" r="2.5"/><circle cx="402.4" cy="565.3" r="2.8"/><circle cx="484.6" cy="463.2" r="2.9"/><circle cx="449.2" cy="510.4" r="1.7"/><circle cx="559.6" cy="232.2" r="2.1"/><circle cx="472.6" cy="482.2" r="2.7"/><circle cx="529.8" cy="451.3" r="2.9"/><circle cx="239.3" cy="892.6" r="2.1"/><circle cx="854.7" cy="234.7" r="2.5"/><circle cx="464.9" cy="518.1" r="1.7"/><circle cx="287.2" cy="709" r="2"/><circle cx="538.7" cy="350" r="1.9"/><circle cx="356.4" cy="736" r="2.7"/><circle cx="454.5" cy="354.3" r="2.8"/><circle cx="791.1" cy="152.9" r="2.9"/><circle cx="275" cy="697.7" r="2"/><circle cx="302.5" cy="752.2" r="2.7"/><circle cx="555.4" cy="181.5" r="1.8"/><circle cx="325.5" cy="542.6" r="1.9"/><circle cx="415.1" cy="847.1" r="2.6"/><circle cx="477.4" cy="520.7" r="1.9"/><circle cx="610.4" cy="146" r="2"/><circle cx="591" cy="126.5" r="2.6"/><circle cx="258" cy="873.3" r="2.5"/><circle cx="129.7" cy="736.6" r="2.3"/><circle cx="451.5" cy="709.1" r="2.7"/><circle cx="212.7" cy="645.2" r="2.2"/><circle cx="548.8" cy="365.1" r="2.7"/><circle cx="332.4" cy="784.3" r="2.1"/><circle cx="339.6" cy="496" r="2.5"/><circle cx="497.9" cy="305" r="1.8"/><circle cx="490.1" cy="740.8" r="2.2"/><circle cx="516.2" cy="166.4" r="2.2"/><circle cx="270.3" cy="816.9" r="2.3"/><circle cx="572.1" cy="98.9" r="2.1"/><circle cx="584.2" cy="182" r="2"/><circle cx="619.8" cy="482.9" r="2.4"/><circle cx="206.7" cy="851.5" r="2.4"/><circle cx="308.4" cy="794.7" r="3"/><circle cx="612.4" cy="82.4" r="1.8"/><circle cx="517" cy="482.5" r="2.2"/><circle cx="340.8" cy="813.6" r="1.9"/><circle cx="312.5" cy="980.9" r="2.9"/><circle cx="269.3" cy="826.2" r="2.9"/><circle cx="489.6" cy="440.3" r="2.2"/><circle cx="325.4" cy="698.7" r="2.4"/><circle cx="475.6" cy="783.6" r="2.2"/><circle cx="430.3" cy="975.1" r="2.6"/><circle cx="543.9" cy="151.1" r="1.8"/><circle cx="203.4" cy="707.5" r="2.1"/><circle cx="556.2" cy="203.9" r="2.8"/><circle cx="417.6" cy="478.4" r="2.3"/><circle cx="513.5" cy="168.2" r="2.1"/><circle cx="369.4" cy="570" r="2.7"/><circle cx="205.2" cy="695.6" r="2.4"/><circle cx="242.2" cy="957.7" r="2.9"/><circle cx="438" cy="523.4" r="2.3"/><circle cx="819.9" cy="184.7" r="1.6"/><circle cx="198" cy="868.8" r="2.6"/><circle cx="546.1" cy="328.9" r="2.1"/><circle cx="531.7" cy="331.7" r="2.9"/><circle cx="478.9" cy="463.2" r="2.7"/><circle cx="377.3" cy="547.5" r="2.1"/><circle cx="532.7" cy="211" r="2.2"/><circle cx="472.1" cy="541.4" r="1.9"/><circle cx="766.8" cy="207.3" r="2"/><circle cx="373.4" cy="894.4" r="2.3"/><circle cx="570.5" cy="801.8" r="2"/><circle cx="346.9" cy="691.6" r="2.9"/><circle cx="72.2" cy="751.8" r="1.9"/><circle cx="469.2" cy="159" r="1.8"/><circle cx="441" cy="300.2" r="2.6"/><circle cx="483.2" cy="799.2" r="2.8"/><circle cx="701" cy="223.2" r="2.1"/><circle cx="418.2" cy="502.7" r="2.8"/><circle cx="311.3" cy="926.3" r="1.9"/><circle cx="865.8" cy="375.8" r="2"/><circle cx="525.4" cy="541.5" r="2.1"/><circle cx="386.5" cy="491.2" r="2.7"/><circle cx="293" cy="863.6" r="1.9"/><circle cx="551.6" cy="693.5" r="2"/><circle cx="472.8" cy="484.6" r="1.9"/><circle cx="549.3" cy="358.6" r="2.6"/><circle cx="699.7" cy="129.4" r="2.6"/><circle cx="259.1" cy="847" r="2.1"/><circle cx="528" cy="789.2" r="2.9"/><circle cx="248.6" cy="863.5" r="2.9"/><circle cx="516.8" cy="331.2" r="1.6"/><circle cx="278.4" cy="661.6" r="1.9"/><circle cx="401.6" cy="523.5" r="2.1"/><circle cx="668.4" cy="178" r="1.7"/><circle cx="709.4" cy="443.7" r="2.4"/><circle cx="563" cy="754.6" r="2.2"/><circle cx="665.1" cy="123.7" r="2.7"/><circle cx="347.9" cy="693.9" r="2.6"/><circle cx="312.3" cy="501" r="1.7"/><circle cx="570.1" cy="352.7" r="2.7"/><circle cx="681.4" cy="158.5" r="3"/><circle cx="420.7" cy="474.6" r="1.7"/><circle cx="255" cy="804.9" r="2.6"/><circle cx="661.8" cy="400.4" r="2.6"/><circle cx="290.7" cy="691.7" r="1.9"/><circle cx="451.2" cy="506.6" r="2"/><circle cx="477" cy="480.6" r="2.2"/><circle cx="199.7" cy="828.8" r="1.7"/><circle cx="450.5" cy="633.7" r="2.3"/><circle cx="205.3" cy="770.7" r="1.7"/><circle cx="458" cy="316.8" r="2"/><circle cx="340" cy="545.5" r="2.8"/><circle cx="222.6" cy="917.7" r="2.2"/><circle cx="469.2" cy="543" r="2.4"/><circle cx="443.7" cy="260.4" r="2.8"/><circle cx="501.2" cy="532" r="2.4"/><circle cx="449.3" cy="716.6" r="2.3"/><circle cx="306.5" cy="514" r="2.8"/><circle cx="442.7" cy="503.8" r="2.5"/><circle cx="490.3" cy="451.2" r="2.7"/><circle cx="330.2" cy="548.8" r="2.8"/><circle cx="200.7" cy="869.9" r="2.1"/><circle cx="593.9" cy="767.8" r="2.5"/><circle cx="872.9" cy="220.6" r="2.8"/><circle cx="161.7" cy="678.8" r="3"/><circle cx="502.2" cy="604.9" r="2.7"/><circle cx="583.3" cy="126.5" r="1.7"/><circle cx="568.4" cy="200.7" r="1.7"/><circle cx="627" cy="107.3" r="2.7"/><circle cx="302.9" cy="981.2" r="2.8"/><circle cx="486.4" cy="762" r="2.2"/><circle cx="536.4" cy="220.2" r="1.8"/><circle cx="498.2" cy="482.4" r="2.4"/><circle cx="436.2" cy="558.2" r="1.7"/><circle cx="493.5" cy="157.2" r="2.5"/><circle cx="505" cy="522.2" r="2"/><circle cx="734.6" cy="289.6" r="2.2"/><circle cx="464.3" cy="296.2" r="1.8"/><circle cx="411.6" cy="550.3" r="2.3"/><circle cx="616.4" cy="199.7" r="2.1"/><circle cx="285.9" cy="716.1" r="2.9"/><circle cx="487.8" cy="723.2" r="2.8"/><circle cx="634.4" cy="551.4" r="1.7"/><circle cx="264.8" cy="733.7" r="2.7"/><circle cx="526.1" cy="416" r="2.2"/><circle cx="511.5" cy="497.1" r="3"/><circle cx="358.3" cy="655.3" r="3"/><circle cx="675.3" cy="485.9" r="2.7"/><circle cx="651.4" cy="339" r="2.7"/><circle cx="340.7" cy="777.5" r="2.8"/><circle cx="629" cy="126.7" r="2.2"/><circle cx="179.3" cy="819.4" r="2.3"/><circle cx="240" cy="732.8" r="2.5"/><circle cx="619.6" cy="541.1" r="2.7"/><circle cx="467.5" cy="580.1" r="2.2"/><circle cx="666.6" cy="707.3" r="2.8"/><circle cx="667.6" cy="484.3" r="2"/><circle cx="525.4" cy="110.4" r="1.8"/><circle cx="308.7" cy="765.9" r="1.8"/><circle cx="179.6" cy="700" r="2"/><circle cx="735.6" cy="229.6" r="1.8"/><circle cx="445.5" cy="589.2" r="1.6"/><circle cx="616.1" cy="189.4" r="2.8"/><circle cx="523.5" cy="726.9" r="1.7"/><circle cx="590" cy="260.8" r="2.7"/><circle cx="475.8" cy="565.5" r="2.5"/><circle cx="233" cy="888.8" r="1.9"/><circle cx="266.8" cy="826.1" r="1.7"/><circle cx="324.4" cy="649.2" r="1.9"/><circle cx="748" cy="462.8" r="2.8"/><circle cx="376.8" cy="565.3" r="2.4"/><circle cx="584.2" cy="132.9" r="1.6"/><circle cx="629.8" cy="394.1" r="2.3"/><circle cx="658.9" cy="435.5" r="2.1"/><circle cx="258.3" cy="960.3" r="1.9"/><circle cx="195.3" cy="831.5" r="2.2"/><circle cx="337.1" cy="535.9" r="2.6"/><circle cx="376.6" cy="444.8" r="1.7"/><circle cx="413.7" cy="526.1" r="2.4"/><circle cx="495.1" cy="520" r="2.1"/><circle cx="359.9" cy="669.8" r="2.1"/><circle cx="283.7" cy="715.2" r="1.8"/><circle cx="371.2" cy="860" r="1.9"/><circle cx="553.3" cy="244" r="1.9"/><circle cx="508.1" cy="480.7" r="2.5"/><circle cx="446.7" cy="486.3" r="2.7"/><circle cx="385.2" cy="964.8" r="2.9"/><circle cx="529.1" cy="188.8" r="1.7"/><circle cx="323.4" cy="645" r="2.4"/><circle cx="599.3" cy="124.2" r="2.4"/><circle cx="351.8" cy="571.4" r="3"/><circle cx="233.9" cy="848.9" r="1.7"/><circle cx="314.6" cy="743.7" r="2.9"/><circle cx="492.5" cy="474.8" r="2.6"/><circle cx="527.5" cy="123.6" r="1.8"/><circle cx="248.7" cy="802.1" r="2.4"/><circle cx="666.4" cy="122.8" r="2.8"/><circle cx="502.7" cy="275.9" r="2.6"/><circle cx="338.9" cy="754.7" r="2.9"/><circle cx="532.8" cy="406.1" r="2.2"/><circle cx="268.1" cy="957.7" r="2.1"/><circle cx="233.1" cy="974.9" r="3"/><circle cx="658.7" cy="224.7" r="1.6"/><circle cx="619.5" cy="197.2" r="2.9"/><circle cx="753.8" cy="117" r="1.7"/><circle cx="686.2" cy="402.7" r="1.8"/><circle cx="673.6" cy="421.4" r="2.3"/><circle cx="603.7" cy="818.5" r="2.8"/><circle cx="451.9" cy="538.7" r="2.2"/><circle cx="874.5" cy="417.6" r="2.9"/><circle cx="491.5" cy="326.7" r="2.1"/><circle cx="524.8" cy="282" r="2.7"/><circle cx="446.5" cy="448.9" r="2.4"/><circle cx="332.3" cy="807" r="2"/><circle cx="455.2" cy="511.9" r="1.8"/><circle cx="511.5" cy="454.7" r="2.4"/><circle cx="357.2" cy="704.4" r="2.3"/><circle cx="286.6" cy="735.6" r="2.3"/><circle cx="444.4" cy="364.3" r="2.1"/><circle cx="252.8" cy="886.7" r="2.8"/><circle cx="539.2" cy="782.5" r="2"/><circle cx="348.6" cy="822" r="1.9"/><circle cx="634.6" cy="269.3" r="1.7"/><circle cx="368.4" cy="663.5" r="2.3"/><circle cx="644.2" cy="133.5" r="2.5"/><circle cx="400.5" cy="946.7" r="1.7"/><circle cx="398.9" cy="518.1" r="2.8"/><circle cx="299.1" cy="721.3" r="2.5"/><circle cx="479.6" cy="477" r="1.9"/><circle cx="564.8" cy="574" r="2.2"/><circle cx="268" cy="950.3" r="3"/><circle cx="250.3" cy="797.1" r="2.1"/><circle cx="490.6" cy="323.3" r="1.7"/><circle cx="353" cy="534" r="2.6"/><circle cx="728" cy="447.3" r="2.8"/><circle cx="626.1" cy="207.9" r="1.7"/><circle cx="618" cy="133.7" r="2"/><circle cx="325.2" cy="981.2" r="1.6"/><circle cx="552.6" cy="138.2" r="2.7"/><circle cx="166.9" cy="799.8" r="2.9"/><circle cx="523.5" cy="496.6" r="1.6"/><circle cx="551.2" cy="514.7" r="2.2"/><circle cx="470.9" cy="562.7" r="2.1"/><circle cx="208.2" cy="816.2" r="2.7"/><circle cx="324.6" cy="678.7" r="2.4"/><circle cx="620.5" cy="87.3" r="2.9"/><circle cx="511.1" cy="937.4" r="2.8"/><circle cx="525.1" cy="443.6" r="2.7"/><circle cx="319.5" cy="653.9" r="3"/><circle cx="481" cy="572.6" r="2.5"/><circle cx="248.1" cy="707.1" r="2.9"/><circle cx="380.1" cy="694.5" r="2.1"/><circle cx="308.6" cy="686.2" r="2.6"/><circle cx="400.2" cy="501.6" r="1.6"/><circle cx="908.5" cy="206.2" r="2"/><circle cx="384.4" cy="460.1" r="1.7"/><circle cx="596.8" cy="282.5" r="1.7"/><circle cx="230.9" cy="819.6" r="2.3"/><circle cx="661.6" cy="417.8" r="2.8"/><circle cx="344.5" cy="736.5" r="2"/><circle cx="566.1" cy="178.6" r="2.2"/><circle cx="676.4" cy="362.8" r="2.8"/><circle cx="427.4" cy="350.2" r="2"/><circle cx="339.4" cy="900.6" r="1.8"/><circle cx="318" cy="846.7" r="2.3"/><circle cx="534.5" cy="316.8" r="2.4"/><circle cx="422.9" cy="329.2" r="2.1"/><circle cx="222.7" cy="724.2" r="2.3"/><circle cx="455.3" cy="252.3" r="2.4"/><circle cx="546" cy="485.7" r="2.2"/><circle cx="274.3" cy="722.4" r="2.4"/><circle cx="510.5" cy="383.3" r="2.1"/><circle cx="441.8" cy="361.2" r="2.7"/><circle cx="565.3" cy="753.6" r="1.7"/><circle cx="605.4" cy="210.4" r="2.6"/><circle cx="496.8" cy="550.9" r="2.8"/><circle cx="524.5" cy="491.3" r="2"/><circle cx="592.9" cy="226.4" r="3"/><circle cx="363.9" cy="749" r="2.5"/><circle cx="354.7" cy="726.8" r="2.3"/><circle cx="646" cy="801.4" r="2.1"/><circle cx="533.1" cy="660.3" r="2.5"/><circle cx="433.9" cy="483" r="1.6"/><circle cx="545.9" cy="243.4" r="2.9"/><circle cx="721.7" cy="473.7" r="2.3"/><circle cx="294.8" cy="864.2" r="1.6"/><circle cx="422.4" cy="310.7" r="2.1"/><circle cx="499.2" cy="552.2" r="2.3"/><circle cx="638" cy="225.4" r="1.9"/><circle cx="601.9" cy="116.5" r="3"/><circle cx="832.2" cy="154.5" r="2"/><circle cx="503.5" cy="570.9" r="2.4"/><circle cx="316.4" cy="846.1" r="2.2"/><circle cx="881" cy="356.1" r="1.6"/><circle cx="439.8" cy="573" r="1.9"/><circle cx="401.2" cy="855.9" r="2.6"/><circle cx="828.9" cy="214.5" r="2.7"/><circle cx="466" cy="520.5" r="2.3"/><circle cx="257.2" cy="660.8" r="2"/><circle cx="663.4" cy="155.7" r="2.2"/><circle cx="595.3" cy="243.2" r="1.8"/><circle cx="825.9" cy="169.3" r="2.4"/><circle cx="313.4" cy="665.8" r="2.9"/><circle cx="555.2" cy="149.2" r="2.2"/><circle cx="738.2" cy="388.6" r="2"/><circle cx="666.7" cy="187.9" r="2.2"/><circle cx="527.1" cy="782.9" r="1.8"/><circle cx="244.9" cy="857.3" r="2.9"/><circle cx="405.5" cy="247.5" r="1.7"/><circle cx="234.2" cy="775.8" r="2.9"/><circle cx="524.1" cy="365.6" r="2"/><circle cx="176.7" cy="774.9" r="2.5"/><circle cx="433.1" cy="319.1" r="2.2"/><circle cx="276.2" cy="874.2" r="1.7"/><circle cx="230.4" cy="906.3" r="2.7"/><circle cx="438.3" cy="534.5" r="2.9"/><circle cx="617.9" cy="149.8" r="2.2"/><circle cx="632.1" cy="597.5" r="2.4"/><circle cx="384.2" cy="475.4" r="1.8"/><circle cx="487.3" cy="478.4" r="2.8"/><circle cx="484" cy="496" r="2.4"/><circle cx="163.5" cy="810.3" r="2"/><circle cx="412.1" cy="199.5" r="1.9"/><circle cx="98.6" cy="685.4" r="2.9"/><circle cx="246.3" cy="721" r="1.7"/><circle cx="512.6" cy="591.6" r="2.7"/><circle cx="484" cy="712.8" r="1.6"/><circle cx="554" cy="667.1" r="2.5"/><circle cx="592.8" cy="162.8" r="2.3"/><circle cx="348.3" cy="592.8" r="2.8"/><circle cx="411.5" cy="624.1" r="2.1"/><circle cx="496.2" cy="98.9" r="1.7"/><circle cx="677" cy="348" r="2"/><circle cx="495.5" cy="782.5" r="1.7"/><circle cx="239.9" cy="857.1" r="1.9"/><circle cx="461.7" cy="248.2" r="2.1"/><circle cx="438.7" cy="868.4" r="2.4"/><circle cx="609.8" cy="803.8" r="2.7"/><circle cx="497.7" cy="786.2" r="2"/><circle cx="226" cy="713" r="2.2"/><circle cx="435.2" cy="642.9" r="2"/><circle cx="281.2" cy="707.4" r="1.6"/><circle cx="347.2" cy="743.6" r="2"/><circle cx="614.9" cy="191.3" r="2.1"/><circle cx="512.6" cy="519.8" r="2.3"/><circle cx="295.2" cy="762.4" r="2"/><circle cx="631.1" cy="208.1" r="2.9"/><circle cx="203" cy="838" r="2.7"/><circle cx="560.4" cy="513.4" r="1.7"/><circle cx="713.6" cy="459.5" r="1.8"/><circle cx="329.6" cy="653.9" r="2.3"/><circle cx="213.2" cy="674.2" r="2.3"/><circle cx="301.7" cy="593.7" r="1.6"/><circle cx="371.4" cy="527" r="2.3"/><circle cx="393.3" cy="657.4" r="2.2"/><circle cx="551.9" cy="337.7" r="2.3"/><circle cx="638.9" cy="197" r="2.3"/><circle cx="633.8" cy="107.5" r="1.6"/><circle cx="646.8" cy="400.7" r="2.6"/><circle cx="447.4" cy="477.5" r="2.1"/><circle cx="601.2" cy="425.4" r="1.9"/><circle cx="297" cy="797.4" r="1.6"/><circle cx="648.5" cy="646.1" r="2.8"/><circle cx="277" cy="429.5" r="1.9"/><circle cx="231.7" cy="867.9" r="1.6"/><circle cx="647.8" cy="124.8" r="2.3"/><circle cx="435.1" cy="599.7" r="2.4"/><circle cx="142.3" cy="829.2" r="2.2"/><circle cx="462.7" cy="592.3" r="2.3"/><circle cx="168.4" cy="764" r="2.6"/><circle cx="401" cy="986.5" r="2"/><circle cx="498.3" cy="321.6" r="2.8"/><circle cx="243.8" cy="963.8" r="2.6"/><circle cx="686.5" cy="814.9" r="1.9"/><circle cx="855.4" cy="446" r="2.8"/><circle cx="601.8" cy="165.5" r="2.2"/><circle cx="327.2" cy="557.7" r="2.1"/><circle cx="281.6" cy="846" r="2"/><circle cx="505.1" cy="805.2" r="2.6"/><circle cx="774.1" cy="169.3" r="2.9"/><circle cx="481.2" cy="736.7" r="2.2"/><circle cx="544.2" cy="200.6" r="2"/><circle cx="583.3" cy="232.2" r="2.4"/><circle cx="472.2" cy="929.3" r="2.7"/><circle cx="291.8" cy="830.4" r="2"/><circle cx="538.3" cy="137.9" r="1.9"/><circle cx="519.4" cy="527" r="2.4"/><circle cx="439.6" cy="316.1" r="2.4"/><circle cx="608.1" cy="176.7" r="1.9"/><circle cx="603.8" cy="215.4" r="3"/><circle cx="467.2" cy="547.7" r="2.8"/><circle cx="524.8" cy="751" r="2"/><circle cx="512.5" cy="831.1" r="2.9"/><circle cx="367.4" cy="888.3" r="3"/><circle cx="314.9" cy="717.5" r="2.9"/><circle cx="445.9" cy="506" r="2.6"/><circle cx="387.7" cy="504.7" r="2.5"/><circle cx="798.9" cy="263.6" r="2.2"/><circle cx="607.8" cy="167.4" r="2.6"/><circle cx="473.1" cy="589.1" r="2.4"/><circle cx="268.9" cy="649.4" r="2.5"/><circle cx="414.6" cy="537.1" r="2.6"/><circle cx="495.7" cy="503.1" r="2"/><circle cx="239.1" cy="886.2" r="2.4"/><circle cx="576.2" cy="819.9" r="2.5"/><circle cx="619" cy="290.5" r="2.4"/><circle cx="690.2" cy="361.1" r="2.8"/><circle cx="440.7" cy="435.5" r="2.7"/><circle cx="338.7" cy="560.3" r="2.4"/><circle cx="639.8" cy="191.4" r="2.4"/><circle cx="671.3" cy="124" r="2.6"/><circle cx="423.3" cy="862.7" r="2.3"/><circle cx="381" cy="729.4" r="1.8"/><circle cx="564.3" cy="340.1" r="2.2"/><circle cx="683.2" cy="465.7" r="2.4"/><circle cx="677.3" cy="164.6" r="2.9"/><circle cx="498.1" cy="723.6" r="2.3"/><circle cx="419.6" cy="462.3" r="2.8"/><circle cx="241.3" cy="849.7" r="1.6"/><circle cx="617.1" cy="727.2" r="1.7"/><circle cx="276.4" cy="754.3" r="1.6"/><circle cx="664.2" cy="582.9" r="2.4"/><circle cx="580.8" cy="170.2" r="2.3"/><circle cx="607.5" cy="113.5" r="2"/><circle cx="359.5" cy="725.9" r="2.4"/><circle cx="620.6" cy="155.4" r="3"/><circle cx="603.1" cy="786.3" r="1.7"/><circle cx="536.4" cy="488.5" r="1.9"/><circle cx="204.3" cy="746" r="2.8"/><circle cx="592.8" cy="429.8" r="1.9"/><circle cx="286.2" cy="432.2" r="2.9"/><circle cx="790.3" cy="474.9" r="2.1"/><circle cx="451.1" cy="522.6" r="1.7"/><circle cx="781.5" cy="185.2" r="3"/><circle cx="656.4" cy="254.4" r="2.9"/><circle cx="350.9" cy="492" r="1.8"/><circle cx="514.2" cy="247.2" r="2.9"/><circle cx="647.1" cy="117.3" r="1.9"/><circle cx="232.2" cy="715.6" r="1.7"/><circle cx="590.9" cy="130.5" r="1.9"/><circle cx="748.6" cy="426.9" r="2.2"/><circle cx="417.8" cy="487.2" r="3"/><circle cx="574.6" cy="157.4" r="1.7"/><circle cx="562.9" cy="792.1" r="2.9"/><circle cx="611.4" cy="316.6" r="2.4"/><circle cx="314.7" cy="625.9" r="2.3"/><circle cx="587.2" cy="184.1" r="2.7"/><circle cx="237" cy="846" r="1.8"/><circle cx="345.6" cy="788.1" r="2.6"/><circle cx="284.3" cy="884.4" r="2.5"/><circle cx="536.2" cy="525.9" r="2"/><circle cx="447.7" cy="462.4" r="2.5"/><circle cx="532.9" cy="448.1" r="2"/><circle cx="462.8" cy="571.1" r="2.7"/><circle cx="541.7" cy="517.2" r="2.3"/><circle cx="585.3" cy="205.6" r="2.9"/><circle cx="470.9" cy="756.3" r="1.8"/><circle cx="581.9" cy="307.6" r="1.6"/><circle cx="718" cy="305.1" r="2.9"/><circle cx="494.9" cy="763" r="2.9"/><circle cx="557.3" cy="245.6" r="1.9"/><circle cx="586.7" cy="166.5" r="2.3"/><circle cx="321.5" cy="516" r="2.8"/><circle cx="341.8" cy="753.5" r="2.6"/><circle cx="178.5" cy="895.8" r="2.7"/><circle cx="490.1" cy="543.7" r="1.9"/><circle cx="517.9" cy="508.9" r="2.1"/><circle cx="532.5" cy="761.8" r="2.7"/><circle cx="517.5" cy="523.8" r="1.9"/><circle cx="503.3" cy="343.1" r="2.2"/><circle cx="581.9" cy="203.1" r="2.9"/><circle cx="854.3" cy="223.6" r="1.8"/><circle cx="465.4" cy="290" r="2.3"/><circle cx="359.9" cy="568.6" r="2.2"/><circle cx="193.7" cy="711" r="2.9"/><circle cx="440.2" cy="495.7" r="2.6"/><circle cx="510.6" cy="334.9" r="2.3"/><circle cx="547.8" cy="927.3" r="2.9"/><circle cx="532.1" cy="387.8" r="2.8"/><circle cx="612.6" cy="259.1" r="1.9"/><circle cx="433.4" cy="133.1" r="2.9"/><circle cx="503.4" cy="510.7" r="1.7"/><circle cx="564.6" cy="836.9" r="2.5"/><circle cx="638.3" cy="386.1" r="2.1"/><circle cx="489.1" cy="736.7" r="2.1"/><circle cx="630.8" cy="339.7" r="1.7"/><circle cx="564.8" cy="375.6" r="2"/><circle cx="517" cy="121.8" r="2.5"/><circle cx="521.4" cy="515.2" r="2.9"/><circle cx="463" cy="551.7" r="2.1"/><circle cx="464.8" cy="508.1" r="2.4"/><circle cx="343.6" cy="850.1" r="2.1"/><circle cx="181.5" cy="630.4" r="2.2"/><circle cx="462.7" cy="465.4" r="2.2"/><circle cx="583.9" cy="228.4" r="2.3"/><circle cx="441.8" cy="543" r="2.6"/><circle cx="217.7" cy="908.5" r="2.6"/><circle cx="396.3" cy="249.9" r="2.1"/><circle cx="529.8" cy="504.5" r="1.7"/><circle cx="641.3" cy="407.1" r="3"/><circle cx="473.2" cy="500.2" r="2.4"/><circle cx="506.9" cy="182.3" r="1.8"/><circle cx="508.7" cy="390.6" r="2.9"/><circle cx="675.4" cy="194.7" r="2.6"/><circle cx="625.7" cy="248.1" r="2.3"/><circle cx="534.3" cy="798" r="2"/><circle cx="461" cy="269.7" r="1.8"/><circle cx="216.7" cy="818.9" r="2.6"/><circle cx="244.6" cy="680.1" r="2"/><circle cx="596" cy="178.4" r="2.7"/><circle cx="588.7" cy="701.3" r="2.7"/><circle cx="385.1" cy="566.8" r="1.8"/><circle cx="415.5" cy="550.3" r="2.3"/><circle cx="670" cy="192.4" r="2.1"/><circle cx="743.8" cy="292.1" r="2"/><circle cx="600.9" cy="189.6" r="1.8"/><circle cx="241" cy="809.3" r="3"/><circle cx="341.3" cy="990.7" r="2.8"/><circle cx="163.4" cy="856.6" r="2.4"/><circle cx="609.6" cy="209.1" r="2.5"/><circle cx="365.5" cy="805.5" r="1.9"/><circle cx="152.7" cy="818.4" r="2.4"/><circle cx="165" cy="810.3" r="2.9"/><circle cx="619.4" cy="239.2" r="2.2"/><circle cx="484" cy="505.8" r="2.6"/><circle cx="656.4" cy="180.7" r="2.5"/><circle cx="373.4" cy="497" r="1.8"/><circle cx="287.5" cy="858.9" r="2"/><circle cx="344.1" cy="740" r="2.9"/><circle cx="790.7" cy="698.2" r="2"/><circle cx="634.8" cy="206.4" r="2.9"/><circle cx="441.8" cy="446.3" r="2.4"/><circle cx="485.8" cy="569.2" r="2.6"/><circle cx="261.2" cy="877.4" r="2.4"/><circle cx="787.8" cy="168.9" r="1.8"/><circle cx="510.5" cy="494.1" r="2.1"/><circle cx="669.5" cy="175.6" r="2"/><circle cx="557.4" cy="234.7" r="2.1"/><circle cx="582" cy="163.7" r="1.9"/><circle cx="233.7" cy="704.9" r="1.8"/><circle cx="675.5" cy="423.3" r="2.5"/><circle cx="295.3" cy="675.4" r="2.1"/><circle cx="643" cy="94.4" r="2.4"/><circle cx="438.2" cy="328.9" r="2.3"/><circle cx="559" cy="298.9" r="2.5"/><circle cx="534.5" cy="445.8" r="2.8"/><circle cx="161.7" cy="781.9" r="1.9"/><circle cx="385.2" cy="614.5" r="2.2"/><circle cx="661.8" cy="130.8" r="2.4"/><circle cx="552.7" cy="188" r="2.9"/><circle cx="629.2" cy="770.6" r="2.9"/><circle cx="448.1" cy="489" r="2.7"/><circle cx="485.4" cy="98.3" r="2"/><circle cx="389.1" cy="396.7" r="2.6"/><circle cx="286.8" cy="715" r="3"/><circle cx="825.4" cy="243" r="2.9"/><circle cx="895.6" cy="344.8" r="2.5"/><circle cx="574" cy="767" r="2.7"/><circle cx="534.8" cy="776.5" r="2.5"/><circle cx="605.6" cy="124.9" r="1.9"/><circle cx="528.5" cy="495.9" r="2.1"/><circle cx="248.7" cy="898" r="1.6"/><circle cx="505.3" cy="198.7" r="2.2"/><circle cx="549.8" cy="177" r="1.8"/><circle cx="415.6" cy="843.2" r="1.7"/><circle cx="526.7" cy="439.8" r="2.3"/><circle cx="254.5" cy="787.7" r="2.1"/><circle cx="586.2" cy="461.7" r="2.6"/><circle cx="456.6" cy="532.7" r="2.8"/><circle cx="502.9" cy="204.5" r="2"/><circle cx="469.4" cy="728.4" r="2.7"/><circle cx="525" cy="765" r="2.9"/><circle cx="526.6" cy="522.4" r="1.7"/><circle cx="729.8" cy="420" r="2.1"/><circle cx="598.8" cy="267.3" r="1.8"/><circle cx="389.8" cy="547" r="2.7"/><circle cx="277.3" cy="878.1" r="2.4"/><circle cx="279.1" cy="854" r="1.6"/><circle cx="251.5" cy="736.6" r="2.7"/><circle cx="769.2" cy="251.1" r="2"/><circle cx="531.9" cy="376.4" r="2.8"/><circle cx="526" cy="810.3" r="2.5"/><circle cx="444.8" cy="133.7" r="2.4"/><circle cx="650.8" cy="188.9" r="2.4"/><circle cx="515.6" cy="259.3" r="1.9"/><circle cx="271.6" cy="770.9" r="2.3"/><circle cx="652.3" cy="118.8" r="2.5"/><circle cx="274.5" cy="833.1" r="1.6"/><circle cx="496.5" cy="755.1" r="2.4"/><circle cx="476.3" cy="491.3" r="2.1"/><circle cx="328.8" cy="777.4" r="2.3"/><circle cx="119.5" cy="701.8" r="2.3"/><circle cx="616.7" cy="256.1" r="2.3"/><circle cx="453.1" cy="624.9" r="2.6"/><circle cx="448.1" cy="631.9" r="2.3"/><circle cx="501.5" cy="161.8" r="3"/><circle cx="237.3" cy="797.7" r="2.9"/><circle cx="513.4" cy="665" r="2.4"/><circle cx="593.1" cy="842.6" r="3"/><circle cx="468.8" cy="471.2" r="1.6"/><circle cx="345.5" cy="566.8" r="2.2"/><circle cx="429.9" cy="543.2" r="2.5"/><circle cx="479.3" cy="343.7" r="2.6"/><circle cx="538.2" cy="451.5" r="2.4"/><circle cx="228" cy="913.1" r="1.9"/><circle cx="491.2" cy="737" r="1.7"/><circle cx="382.7" cy="570.5" r="1.7"/><circle cx="556.4" cy="485.3" r="1.6"/><circle cx="589.7" cy="763.7" r="2.7"/><circle cx="489.3" cy="712.9" r="2.3"/><circle cx="537.5" cy="356.7" r="2"/><circle cx="670" cy="171.4" r="1.7"/><circle cx="471.2" cy="506.1" r="1.6"/><circle cx="519.4" cy="535.8" r="2.7"/><circle cx="181.1" cy="860.3" r="2.2"/><circle cx="320.3" cy="781.9" r="2.1"/><circle cx="425.2" cy="1008.7" r="1.9"/><circle cx="299.6" cy="723.7" r="2.1"/><circle cx="595.9" cy="196.9" r="2.2"/><circle cx="524.1" cy="130.8" r="2.6"/><circle cx="154.2" cy="679.2" r="2.6"/><circle cx="496.6" cy="479.5" r="2"/><circle cx="490.4" cy="328.9" r="1.6"/><circle cx="398.8" cy="609.5" r="1.6"/><circle cx="388.3" cy="76.7" r="2"/><circle cx="586.3" cy="252.2" r="2.5"/><circle cx="569.3" cy="714.2" r="2.6"/><circle cx="231.3" cy="838.1" r="2"/><circle cx="342.6" cy="542.2" r="1.8"/><circle cx="522.5" cy="213.2" r="2.1"/><circle cx="491.2" cy="477.1" r="1.9"/><circle cx="918.1" cy="161.3" r="2.3"/><circle cx="489.5" cy="716.4" r="3"/><circle cx="336.2" cy="760.1" r="1.7"/><circle cx="692.3" cy="398.8" r="2.5"/><circle cx="650" cy="349.2" r="1.8"/><circle cx="293.7" cy="861.1" r="1.9"/><circle cx="177" cy="709.4" r="2.7"/><circle cx="307.4" cy="669" r="2.6"/><circle cx="256.9" cy="801.9" r="2.2"/><circle cx="127.3" cy="782.9" r="2.2"/><circle cx="577.9" cy="359.3" r="2.6"/><circle cx="498.9" cy="120.5" r="2.1"/><circle cx="673.6" cy="113.9" r="1.9"/><circle cx="541.9" cy="518.5" r="2.4"/><circle cx="547.5" cy="541.7" r="2.5"/><circle cx="316" cy="649.9" r="2.3"/><circle cx="456.3" cy="595.1" r="2.7"/></g>
<path d="M720,120 C716.7,138.3 716.7,196.7 700,230 C683.3,263.3 643.3,286.7 620,320 C596.7,353.3 565,396.7 560,430 C555,463.3 596.7,490 590,520 C583.3,550 546.7,581.7 520,610 C493.3,638.3 451.7,660 430,690 C408.3,720 406.7,758.3 390,790 C373.3,821.7 353.3,851.7 330,880 C306.7,908.3 263.3,946.7 250,960" fill="none" stroke="#C4522A" stroke-width="3.2" stroke-linecap="round"/>
<circle cx="720" cy="120" r="7" fill="#2B231A" stroke="#C4522A" stroke-width="3"/>
<text x="736" y="125" class="mono" font-size="14" letter-spacing="2" fill="#E0A02E" text-anchor="start">ČADCA</text>
<circle cx="590" cy="520" r="7" fill="#2B231A" stroke="#C4522A" stroke-width="3"/>
<text x="608" y="525" class="mono" font-size="14" letter-spacing="2" fill="#E0A02E" text-anchor="start">VEĽKÝ JAVORNÍK</text>
<circle cx="250" cy="960" r="7" fill="#2B231A" stroke="#C4522A" stroke-width="3"/>
<text x="234" y="965" class="mono" font-size="14" letter-spacing="2" fill="#E0A02E" text-anchor="end">LYSÁ POD MAKYTOU</text>
<text x="300" y="560" class="black" font-size="54" fill="#F0E6D2" opacity=".16" text-anchor="middle">CZ</text>
<text x="800" y="700" class="black" font-size="54" fill="#F0E6D2" opacity=".16" text-anchor="middle">SK</text>
</g>
<g id="08-typografia">
<text x="60" y="1153" class="black" font-size="96" letter-spacing="3" fill="#F0E6D2">MAPA SAMÔT</text>
<text x="62" y="1197" class="mono" font-size="17" letter-spacing="3.2" fill="#E0A02E" font-weight="600">900 BODIEK · JEDNA HREBEŇOVKA</text>
<text x="60" y="1247" class="serif" font-size="20.5" fill="#F0E6D2">Žiadny obrázok hory. Len miesta, kde niekto postavil dom tak ďaleko</text>
<text x="60" y="1274" class="serif" font-size="20.5" fill="#F0E6D2">od ostatných, ako sa len dalo — a červená čiara, po ktorej sa medzi</text>
<text x="60" y="1301" class="serif" font-size="20.5" fill="#F0E6D2">nimi dá prejsť za jeden deň. Ak máte nohy na sto päť kilometrov.</text>
<line x1="60" y1="1318" x2="940" y2="1318" stroke="#F0E6D2" stroke-width="1.4"/>
<text x="60" y="1348" class="mono" font-size="15" letter-spacing="1.5" fill="#F0E6D2">Kopaničiarske osady  ·  Javorníky  ·  A3</text>
<text x="940" y="1348" class="mono" font-size="15" letter-spacing="1.5" fill="#F0E6D2" text-anchor="end">Edícia 1 / 100  ·  ___________</text>
</g>
<g id="09-zrno" class="mul" opacity="0.08"><rect width="1000" height="1414" filter="url(#grain)"/></g>
</svg>